<svg width="29" height="29" viewBox="0 0 29 29" fill="none" xmlns="http://www.w3.org/2000/svg">
<path d="M15.0345 18.4966L18.2788 21.75L15.0254 25.0034L16.3123 26.2812L20.8435 21.75L16.3123 17.2188L15.0345 18.4966Z" fill="#394A64"/>
<path d="M21.3782 18.4966L24.6226 21.75L21.3691 25.0034L22.656 26.2812L27.1873 21.75L22.656 17.2188L21.3782 18.4966Z" fill="#394A64"/>
<path d="M12.6875 20.8438H3.625V7.16844L13.9834 14.3369C14.1351 14.4421 14.3154 14.4985 14.5 14.4985C14.6846 14.4985 14.8649 14.4421 15.0166 14.3369L25.375 7.16844V15.4062H27.1875V6.34375C27.1875 5.86305 26.9965 5.40203 26.6566 5.06212C26.3167 4.72221 25.8557 4.53125 25.375 4.53125H3.625C3.1443 4.53125 2.68328 4.72221 2.34337 5.06212C2.00346 5.40203 1.8125 5.86305 1.8125 6.34375V20.8438C1.8125 21.3245 2.00346 21.7855 2.34337 22.1254C2.68328 22.4653 3.1443 22.6562 3.625 22.6562H12.6875V20.8438ZM23.3812 6.34375L14.5 12.4881L5.61875 6.34375H23.3812Z" fill="#394A64"/>
</svg>
