<svg width="20" height="27" viewBox="0 0 20 27" fill="none" xmlns="http://www.w3.org/2000/svg">
<path d="M18.3231 4.57166C18.5022 4.57166 18.674 4.50108 18.8006 4.37544C18.9272 4.2498 18.9984 4.0794 18.9984 3.90172V1.66994C18.9984 1.49226 18.9272 1.32186 18.8006 1.19622C18.674 1.07058 18.5022 1 18.3231 1H1.67523C1.49615 1 1.3244 1.07058 1.19777 1.19622C1.07114 1.32186 1 1.49226 1 1.66994L1 4.16708C1 4.34476 1.07114 4.51516 1.19777 4.6408C1.3244 4.76644 1.49615 4.83702 1.67523 4.83702H6.47115C7.12394 4.79755 7.77666 4.91524 8.37371 5.18006C8.97075 5.44487 9.49443 5.84896 9.90012 6.3579H1.67523C1.49629 6.3579 1.32467 6.42837 1.19806 6.55383C1.07146 6.6793 1.00022 6.84949 1 7.02703V9.2588C1 9.43648 1.07114 9.60689 1.19777 9.73252C1.3244 9.85816 1.49615 9.92875 1.67523 9.92875H10.6042C10.2542 11.9427 8.75025 13.2007 6.39934 13.2007H1.67523C1.49629 13.2007 1.32467 13.2711 1.19806 13.3966C1.07146 13.522 1.00022 13.6922 1 13.8698L1 16.828C1.0001 16.9203 1.01944 17.0117 1.0568 17.0962C1.09416 17.1808 1.14873 17.2568 1.2171 17.3194L10.5002 25.8223C10.625 25.9366 10.7886 26 10.9584 26H15.6016C15.7372 25.9998 15.8697 25.9591 15.9817 25.8832C16.0937 25.8072 16.1801 25.6996 16.2295 25.5742C16.279 25.4489 16.2892 25.3117 16.2589 25.1805C16.2286 25.0493 16.1592 24.9301 16.0597 24.8387L7.57397 17.0663C9.54469 17.0895 11.4494 16.3625 12.8964 15.0348C14.3434 13.7072 15.2226 11.8799 15.3531 9.92875H18.3248C18.5039 9.92875 18.6756 9.85816 18.8022 9.73252C18.9289 9.60689 19 9.43648 19 9.2588V7.02703C19 6.84935 18.9289 6.67894 18.8022 6.55331C18.6756 6.42767 18.5039 6.35708 18.3248 6.35708H15.0229C14.8339 5.73037 14.5645 5.13032 14.2214 4.57166H18.3231Z" fill="#5E2EBA" stroke="#FBFBFB"/>
</svg>
