<svg width="16" height="20" viewBox="0 0 16 20" fill="none" xmlns="http://www.w3.org/2000/svg">
<path d="M14.9701 3.65902C15.1094 3.65902 15.2431 3.60729 15.3417 3.5152C15.4403 3.42312 15.4956 3.29824 15.4956 3.16802V1.53202C15.4956 1.40179 15.4403 1.27691 15.3417 1.18483C15.2431 1.09275 15.1094 1.04102 14.9701 1.04102H2.00801C1.86862 1.04102 1.73493 1.09275 1.63636 1.18483C1.5378 1.27691 1.48242 1.40179 1.48242 1.53202V3.36202C1.48242 3.49224 1.5378 3.61712 1.63636 3.70921C1.73493 3.80129 1.86862 3.85302 2.00801 3.85302H5.74173C6.24997 3.8241 6.75817 3.91039 7.22301 4.10454C7.68785 4.29868 8.09557 4.59492 8.41142 4.96802H2.00801C1.8688 4.96802 1.73528 5.01961 1.63674 5.11147C1.53821 5.20334 1.48271 5.32797 1.48242 5.45802V7.09102C1.48242 7.22124 1.5378 7.34612 1.63636 7.4382C1.73493 7.53029 1.86862 7.58202 2.00801 7.58202H8.95842C8.84484 8.29724 8.44221 8.94462 7.83335 9.39103C7.22448 9.83743 6.45567 10.0489 5.685 9.98202H2.00801C1.9389 9.98202 1.87047 9.99475 1.80663 10.0195C1.74279 10.0442 1.68481 10.0805 1.63599 10.1262C1.58717 10.1719 1.54847 10.2261 1.52212 10.2858C1.49577 10.3455 1.48228 10.4095 1.48242 10.474V12.642C1.4824 12.7098 1.49741 12.7769 1.52652 12.8391C1.55563 12.9012 1.5982 12.957 1.65155 13.003L8.87814 19.235C8.97525 19.3187 9.10251 19.3651 9.2346 19.365H12.8495C12.9551 19.3648 13.0581 19.335 13.1452 19.2793C13.2324 19.2236 13.2995 19.1448 13.338 19.0529C13.3765 18.9611 13.3844 18.8606 13.3609 18.7645C13.3373 18.6683 13.2833 18.5811 13.206 18.514L6.60023 12.814C8.13444 12.8317 9.61751 12.2992 10.744 11.326C11.8706 10.3529 12.5548 9.01326 12.6557 7.58302H14.9701C15.1094 7.58302 15.2431 7.53129 15.3417 7.43921C15.4403 7.34712 15.4956 7.22224 15.4956 7.09202V5.45802C15.4956 5.32779 15.4403 5.20291 15.3417 5.11083C15.2431 5.01875 15.1094 4.96702 14.9701 4.96702H12.401C12.2538 4.50752 12.0441 4.06758 11.7769 3.65802L14.9701 3.65902Z" fill="#3D3D3D" stroke="#FBFBFB"/>
</svg>
